<?xml version="1.0" encoding="UTF-8" standalone="no"?>
<svg
   xmlns:dc="http://purl.org/dc/elements/1.1/"
   xmlns:cc="http://creativecommons.org/ns#"
   xmlns:rdf="http://www.w3.org/1999/02/22-rdf-syntax-ns#"
   xmlns:svg="http://www.w3.org/2000/svg"
   xmlns="http://www.w3.org/2000/svg"
   id="svg8"
   version="1.1"
   viewBox="0 0 240 75"
   height="75mm"
   width="240mm">
  <defs
     id="defs2">
    <marker
       style="overflow:visible"
       id="marker1663"
       refX="0.0"
       refY="0.0"
       orient="auto">
      <path
         transform="scale(0.2) translate(6,0)"
         style="fill-rule:evenodd;stroke:#fa8f00;stroke-width:1pt;stroke-opacity:1;fill:#fa8f00;fill-opacity:1"
         d="M 0.0,0.0 L 5.0,-5.0 L -12.5,0.0 L 5.0,5.0 L 0.0,0.0 z "
         id="path1661" />
    </marker>
    <marker
       style="overflow:visible;"
       id="Arrow1Send"
       refX="0.0"
       refY="0.0"
       orient="auto">
      <path
         transform="scale(0.2) rotate(180) translate(6,0)"
         style="fill-rule:evenodd;stroke:#fa8f00;stroke-width:1pt;stroke-opacity:1;fill:#fa8f00;fill-opacity:1"
         d="M 0.0,0.0 L 5.0,-5.0 L -12.5,0.0 L 5.0,5.0 L 0.0,0.0 z "
         id="path1106" />
    </marker>
    <marker
       style="overflow:visible;"
       id="marker1657"
       refX="0.0"
       refY="0.0"
       orient="auto">
      <path
         transform="scale(0.4) rotate(180) translate(10,0)"
         style="fill-rule:evenodd;stroke:#fa8f00;stroke-width:1pt;stroke-opacity:1;fill:#fa8f00;fill-opacity:1"
         d="M 0.0,0.0 L 5.0,-5.0 L -12.5,0.0 L 5.0,5.0 L 0.0,0.0 z "
         id="path1655" />
    </marker>
    <marker
       style="overflow:visible;"
       id="marker1653"
       refX="0.0"
       refY="0.0"
       orient="auto">
      <path
         transform="scale(0.3) rotate(180) translate(-2.3,0)"
         d="M 8.7185878,4.0337352 L -2.2072895,0.016013256 L 8.7185884,-4.0017078 C 6.9730900,-1.6296469 6.9831476,1.6157441 8.7185878,4.0337352 z "
         style="fill-rule:evenodd;stroke-width:0.625;stroke-linejoin:round;stroke:#fa8f00;stroke-opacity:1;fill:#fa8f00;fill-opacity:1"
         id="path1651" />
    </marker>
    <marker
       style="overflow:visible"
       id="marker1649"
       refX="0.0"
       refY="0.0"
       orient="auto">
      <path
         transform="scale(0.4) translate(10,0)"
         style="fill-rule:evenodd;stroke:#fa8f00;stroke-width:1pt;stroke-opacity:1;fill:#fa8f00;fill-opacity:1"
         d="M 0.0,0.0 L 5.0,-5.0 L -12.5,0.0 L 5.0,5.0 L 0.0,0.0 z "
         id="path1647" />
    </marker>
    <marker
       style="overflow:visible;"
       id="marker1645"
       refX="0.0"
       refY="0.0"
       orient="auto">
      <path
         transform="scale(0.3) rotate(180) translate(-2.3,0)"
         d="M 8.7185878,4.0337352 L -2.2072895,0.016013256 L 8.7185884,-4.0017078 C 6.9730900,-1.6296469 6.9831476,1.6157441 8.7185878,4.0337352 z "
         style="fill-rule:evenodd;stroke-width:0.625;stroke-linejoin:round;stroke:#fa8f00;stroke-opacity:1;fill:#fa8f00;fill-opacity:1"
         id="path1643" />
    </marker>
    <marker
       style="overflow:visible"
       id="Arrow2Sstart"
       refX="0.0"
       refY="0.0"
       orient="auto">
      <path
         transform="scale(0.3) translate(-2.3,0)"
         d="M 8.7185878,4.0337352 L -2.2072895,0.016013256 L 8.7185884,-4.0017078 C 6.9730900,-1.6296469 6.9831476,1.6157441 8.7185878,4.0337352 z "
         style="fill-rule:evenodd;stroke-width:0.625;stroke-linejoin:round;stroke:#fa8f00;stroke-opacity:1;fill:#fa8f00;fill-opacity:1"
         id="path1121" />
    </marker>
    <marker
       style="overflow:visible;"
       id="marker1639"
       refX="0.0"
       refY="0.0"
       orient="auto">
      <path
         transform="scale(0.3) rotate(180) translate(-2.3,0)"
         d="M 8.7185878,4.0337352 L -2.2072895,0.016013256 L 8.7185884,-4.0017078 C 6.9730900,-1.6296469 6.9831476,1.6157441 8.7185878,4.0337352 z "
         style="fill-rule:evenodd;stroke-width:0.625;stroke-linejoin:round;stroke:#fa8f00;stroke-opacity:1;fill:#fa8f00;fill-opacity:1"
         id="path1637" />
    </marker>
    <marker
       style="overflow:visible;"
       id="marker1635"
       refX="0.0"
       refY="0.0"
       orient="auto">
      <path
         transform="scale(0.6) rotate(180) translate(0,0)"
         d="M 8.7185878,4.0337352 L -2.2072895,0.016013256 L 8.7185884,-4.0017078 C 6.9730900,-1.6296469 6.9831476,1.6157441 8.7185878,4.0337352 z "
         style="fill-rule:evenodd;stroke-width:0.625;stroke-linejoin:round;stroke:#fa8f00;stroke-opacity:1;fill:#fa8f00;fill-opacity:1"
         id="path1633" />
    </marker>
    <marker
       style="overflow:visible"
       id="Arrow1Mstart"
       refX="0.0"
       refY="0.0"
       orient="auto">
      <path
         transform="scale(0.4) translate(10,0)"
         style="fill-rule:evenodd;stroke:#fa8f00;stroke-width:1pt;stroke-opacity:1;fill:#fa8f00;fill-opacity:1"
         d="M 0.0,0.0 L 5.0,-5.0 L -12.5,0.0 L 5.0,5.0 L 0.0,0.0 z "
         id="path1097" />
    </marker>
    <marker
       style="overflow:visible"
       id="marker1629"
       refX="0.0"
       refY="0.0"
       orient="auto">
      <path
         transform="scale(0.2) translate(6,0)"
         style="fill-rule:evenodd;stroke:#fa8f00;stroke-width:1pt;stroke-opacity:1;fill:#fa8f00;fill-opacity:1"
         d="M 0.0,0.0 L 5.0,-5.0 L -12.5,0.0 L 5.0,5.0 L 0.0,0.0 z "
         id="path1627" />
    </marker>
    <marker
       style="overflow:visible;"
       id="marker1625"
       refX="0.0"
       refY="0.0"
       orient="auto">
      <path
         transform="scale(0.4) rotate(180) translate(10,0)"
         style="fill-rule:evenodd;stroke:#fa8f00;stroke-width:1pt;stroke-opacity:1;fill:#fa8f00;fill-opacity:1"
         d="M 0.0,0.0 L 5.0,-5.0 L -12.5,0.0 L 5.0,5.0 L 0.0,0.0 z "
         id="path1623" />
    </marker>
    <marker
       style="overflow:visible;"
       id="marker1621"
       refX="0.0"
       refY="0.0"
       orient="auto">
      <path
         transform="scale(0.4) rotate(180) translate(10,0)"
         style="fill-rule:evenodd;stroke:#fa8f00;stroke-width:1pt;stroke-opacity:1;fill:#fa8f00;fill-opacity:1"
         d="M 0.0,0.0 L 5.0,-5.0 L -12.5,0.0 L 5.0,5.0 L 0.0,0.0 z "
         id="path1619" />
    </marker>
    <marker
       style="overflow:visible;"
       id="marker1617"
       refX="0.0"
       refY="0.0"
       orient="auto">
      <path
         transform="scale(1.1) rotate(180) translate(1,0)"
         d="M 8.7185878,4.0337352 L -2.2072895,0.016013256 L 8.7185884,-4.0017078 C 6.9730900,-1.6296469 6.9831476,1.6157441 8.7185878,4.0337352 z "
         style="fill-rule:evenodd;stroke-width:0.625;stroke-linejoin:round;stroke:#fa8f00;stroke-opacity:1;fill:#fa8f00;fill-opacity:1"
         id="path1615" />
    </marker>
    <marker
       style="overflow:visible"
       id="marker1613"
       refX="0.0"
       refY="0.0"
       orient="auto">
      <path
         transform="scale(0.2) translate(6,0)"
         style="fill-rule:evenodd;stroke:#fa8f00;stroke-width:1pt;stroke-opacity:1;fill:#fa8f00;fill-opacity:1"
         d="M 0.0,0.0 L 5.0,-5.0 L -12.5,0.0 L 5.0,5.0 L 0.0,0.0 z "
         id="path1611" />
    </marker>
    <marker
       style="overflow:visible;"
       id="marker1609"
       refX="0.0"
       refY="0.0"
       orient="auto">
      <path
         transform="scale(0.4) rotate(180) translate(10,0)"
         style="fill-rule:evenodd;stroke:#fa8f00;stroke-width:1pt;stroke-opacity:1;fill:#fa8f00;fill-opacity:1"
         d="M 0.0,0.0 L 5.0,-5.0 L -12.5,0.0 L 5.0,5.0 L 0.0,0.0 z "
         id="path1607" />
    </marker>
    <marker
       style="overflow:visible;"
       id="marker1605"
       refX="0.0"
       refY="0.0"
       orient="auto">
      <path
         transform="scale(0.4) rotate(180) translate(10,0)"
         style="fill-rule:evenodd;stroke:#fa8f00;stroke-width:1pt;stroke-opacity:1;fill:#fa8f00;fill-opacity:1"
         d="M 0.0,0.0 L 5.0,-5.0 L -12.5,0.0 L 5.0,5.0 L 0.0,0.0 z "
         id="path1603" />
    </marker>
    <marker
       style="overflow:visible"
       id="Arrow1Sstart"
       refX="0.0"
       refY="0.0"
       orient="auto">
      <path
         transform="scale(0.2) translate(6,0)"
         style="fill-rule:evenodd;stroke:#fa8f00;stroke-width:1pt;stroke-opacity:1;fill:#fa8f00;fill-opacity:1"
         d="M 0.0,0.0 L 5.0,-5.0 L -12.5,0.0 L 5.0,5.0 L 0.0,0.0 z "
         id="path1103" />
    </marker>
    <marker
       style="overflow:visible;"
       id="Arrow1Mend"
       refX="0.0"
       refY="0.0"
       orient="auto">
      <path
         transform="scale(0.4) rotate(180) translate(10,0)"
         style="fill-rule:evenodd;stroke:#fa8f00;stroke-width:1pt;stroke-opacity:1;fill:#fa8f00;fill-opacity:1"
         d="M 0.0,0.0 L 5.0,-5.0 L -12.5,0.0 L 5.0,5.0 L 0.0,0.0 z "
         id="path1100" />
    </marker>
    <marker
       style="overflow:visible;"
       id="Arrow2Send"
       refX="0.0"
       refY="0.0"
       orient="auto">
      <path
         transform="scale(0.3) rotate(180) translate(-2.3,0)"
         d="M 8.7185878,4.0337352 L -2.2072895,0.016013256 L 8.7185884,-4.0017078 C 6.9730900,-1.6296469 6.9831476,1.6157441 8.7185878,4.0337352 z "
         style="fill-rule:evenodd;stroke-width:0.625;stroke-linejoin:round;stroke:#fa8f00;stroke-opacity:1;fill:#fa8f00;fill-opacity:1"
         id="path1124" />
    </marker>
    <marker
       style="overflow:visible;"
       id="Arrow2Mend"
       refX="0.0"
       refY="0.0"
       orient="auto">
      <path
         transform="scale(0.6) rotate(180) translate(0,0)"
         d="M 8.7185878,4.0337352 L -2.2072895,0.016013256 L 8.7185884,-4.0017078 C 6.9730900,-1.6296469 6.9831476,1.6157441 8.7185878,4.0337352 z "
         style="fill-rule:evenodd;stroke-width:0.625;stroke-linejoin:round;stroke:#fa8f00;stroke-opacity:1;fill:#fa8f00;fill-opacity:1"
         id="path1118" />
    </marker>
    <marker
       style="overflow:visible;"
       id="Arrow2Lend"
       refX="0.0"
       refY="0.0"
       orient="auto">
      <path
         transform="scale(1.1) rotate(180) translate(1,0)"
         d="M 8.7185878,4.0337352 L -2.2072895,0.016013256 L 8.7185884,-4.0017078 C 6.9730900,-1.6296469 6.9831476,1.6157441 8.7185878,4.0337352 z "
         style="fill-rule:evenodd;stroke-width:0.625;stroke-linejoin:round;stroke:#fa8f00;stroke-opacity:1;fill:#fa8f00;fill-opacity:1"
         id="path1112" />
    </marker>
    <marker
       style="overflow:visible"
       id="Arrow2Send-3"
       refX="0"
       refY="0"
       orient="auto">
      <path
         transform="matrix(-0.3,0,0,-0.3,0.69,0)"
         d="M 8.7185878,4.0337352 -2.2072895,0.01601326 8.7185884,-4.0017078 c -1.7454984,2.3720609 -1.7354408,5.6174519 -6e-7,8.035443 z"
         style="fill:#fa8f00;fill-opacity:1;fill-rule:evenodd;stroke:#fa8f00;stroke-width:0.625;stroke-linejoin:round;stroke-opacity:1"
         id="path1124-1" />
    </marker>
    <marker
       style="overflow:visible"
       id="Arrow2Send-7"
       refX="0"
       refY="0"
       orient="auto">
      <path
         transform="matrix(-0.3,0,0,-0.3,0.69,0)"
         d="M 8.7185878,4.0337352 -2.2072895,0.01601326 8.7185884,-4.0017078 c -1.7454984,2.3720609 -1.7354408,5.6174519 -6e-7,8.035443 z"
         style="fill:#fa8f00;fill-opacity:1;fill-rule:evenodd;stroke:#fa8f00;stroke-width:0.625;stroke-linejoin:round;stroke-opacity:1"
         id="path1124-8" />
    </marker>
    <marker
       style="overflow:visible"
       id="Arrow2Send-0"
       refX="0"
       refY="0"
       orient="auto">
      <path
         transform="matrix(-0.3,0,0,-0.3,0.69,0)"
         d="M 8.7185878,4.0337352 -2.2072895,0.01601326 8.7185884,-4.0017078 c -1.7454984,2.3720609 -1.7354408,5.6174519 -6e-7,8.035443 z"
         style="fill:#fa8f00;fill-opacity:1;fill-rule:evenodd;stroke:#fa8f00;stroke-width:0.625;stroke-linejoin:round;stroke-opacity:1"
         id="path1124-3" />
    </marker>
    <marker
       style="overflow:visible"
       id="Arrow2Send-06"
       refX="0"
       refY="0"
       orient="auto">
      <path
         transform="matrix(-0.3,0,0,-0.3,0.69,0)"
         d="M 8.7185878,4.0337352 -2.2072895,0.01601326 8.7185884,-4.0017078 c -1.7454984,2.3720609 -1.7354408,5.6174519 -6e-7,8.035443 z"
         style="fill:#fa8f00;fill-opacity:1;fill-rule:evenodd;stroke:#fa8f00;stroke-width:0.625;stroke-linejoin:round;stroke-opacity:1"
         id="path1124-32" />
    </marker>
  </defs>
  <metadata
     id="metadata5">
    <rdf:RDF>
      <cc:Work
         rdf:about="">
        <dc:format>image/svg+xml</dc:format>
        <dc:type
           rdf:resource="http://purl.org/dc/dcmitype/StillImage" />
        <dc:title></dc:title>
      </cc:Work>
    </rdf:RDF>
  </metadata>
  <g
     transform="translate(1.0946693,-228.36877)"
     id="layer1-5">
    <text
       id="text12-3"
       y="251.17572"
       x="2.4769893"
       style="font-style:normal;font-weight:normal;font-size:12.69999981px;line-height:1.25;font-family:sans-serif;letter-spacing:0px;word-spacing:0px;fill:#294270;fill-opacity:1;stroke:none;stroke-width:0.26458332"
       xml:space="preserve"><tspan
         dx="0"
         style="font-style:normal;font-variant:normal;font-weight:500;font-stretch:normal;font-size:12.69999981px;font-family:Roboto;-inkscape-font-specification:'Roboto Medium';letter-spacing:0.5291667px;fill:#294270;fill-opacity:1;stroke-width:0.26458332"
         y="251.17572"
         x="2.4769893"
         id="tspan10-5">'01.01.2000' == '1 January 2000 year'</tspan></text>
  </g>
  <rect
     y="12.641538"
     x="6.04496"
     height="11.801453"
     width="14.648632"
     id="rect966"
     style="fill:none;fill-opacity:1;stroke:#fa8f00;stroke-width:0.81800002;stroke-linecap:round;stroke-miterlimit:4;stroke-dasharray:none;stroke-opacity:1;paint-order:markers stroke fill" />
  <rect
     y="12.598885"
     x="25.406439"
     height="11.801453"
     width="14.648632"
     id="rect966-2"
     style="fill:none;fill-opacity:1;stroke:#fa8f00;stroke-width:0.81830883;stroke-linecap:round;stroke-miterlimit:4;stroke-dasharray:none;stroke-opacity:1;paint-order:markers stroke fill" />
  <rect
     y="12.806157"
     x="45.162811"
     height="11.450506"
     width="30.824249"
     id="rect966-6"
     style="fill:none;fill-opacity:1;stroke:#fa8f00;stroke-width:0.81800002;stroke-linecap:round;stroke-miterlimit:4;stroke-dasharray:none;stroke-opacity:1;paint-order:markers stroke fill" />
  <rect
     y="12.122293"
     x="104.21648"
     height="11.917407"
     width="8.0614786"
     id="rect966-7"
     style="fill:none;fill-opacity:1;stroke:#fa8f00;stroke-width:0.81800002;stroke-linecap:round;stroke-miterlimit:4;stroke-dasharray:none;stroke-opacity:1;paint-order:markers stroke fill" />
  <rect
     y="12.587761"
     x="114.91104"
     height="13.598185"
     width="51.982277"
     id="rect966-9"
     style="fill:none;fill-opacity:1;stroke:#fa8f00;stroke-width:0.81800002;stroke-linecap:round;stroke-miterlimit:4;stroke-dasharray:none;stroke-opacity:1;paint-order:markers stroke fill" />
  <rect
     y="12.538188"
     x="168.5787"
     height="13.528276"
     width="61.56353"
     id="rect966-9-9"
     style="fill:none;fill-opacity:1;stroke:#fa8f00;stroke-width:0.81800002;stroke-linecap:round;stroke-miterlimit:4;stroke-dasharray:none;stroke-opacity:1;paint-order:markers stroke fill" />
  <g
     transform="translate(20.284222,-189.11599)"
     id="layer1-5-2">
    <text
       id="text12-3-2"
       y="251.17572"
       x="2.4769893"
       style="font-style:normal;font-weight:normal;font-size:12.69999981px;line-height:1.25;font-family:sans-serif;letter-spacing:0px;word-spacing:0px;fill:#294270;fill-opacity:1;stroke:none;stroke-width:0.26458332"
       xml:space="preserve"><tspan
         dx="0"
         style="font-style:normal;font-variant:normal;font-weight:500;font-stretch:normal;font-size:12.69999981px;font-family:Roboto;-inkscape-font-specification:'Roboto Medium';letter-spacing:0.5291667px;fill:#294270;fill-opacity:1;stroke-width:0.26458332"
         y="251.17572"
         x="2.4769893"
         id="tspan10-5-8">'12:30' == '12 hours 30 minutes'</tspan></text>
  </g>
  <rect
     y="51.904453"
     x="25.244638"
     height="11.781199"
     width="15.409484"
     id="rect966-97"
     style="fill:none;fill-opacity:1;stroke:#fa8f00;stroke-width:0.83825439;stroke-linecap:round;stroke-miterlimit:4;stroke-dasharray:none;stroke-opacity:1;paint-order:markers stroke fill" />
  <rect
     y="51.863903"
     x="44.608219"
     height="11.776993"
     width="15.569721"
     id="rect966-2-3"
     style="fill:none;fill-opacity:1;stroke:#fa8f00;stroke-width:0.84276909;stroke-linecap:round;stroke-miterlimit:4;stroke-dasharray:none;stroke-opacity:1;paint-order:markers stroke fill" />
  <rect
     y="51.012089"
     x="88.214638"
     height="12.624013"
     width="54.296974"
     id="rect966-9-2"
     style="fill:none;fill-opacity:1;stroke:#fa8f00;stroke-width:0.80551142;stroke-linecap:round;stroke-miterlimit:4;stroke-dasharray:none;stroke-opacity:1;paint-order:markers stroke fill" />
  <rect
     y="51.158703"
     x="145.8569"
     height="12.467245"
     width="69.195625"
     id="rect966-9-9-9"
     style="fill:none;fill-opacity:1;stroke:#fa8f00;stroke-width:0.83252043;stroke-linecap:round;stroke-miterlimit:4;stroke-dasharray:none;stroke-opacity:1;paint-order:markers stroke fill" />
  <path
     id="path1425"
     d="m 13.119584,24.395024 c 0,2.480354 0,4.960977 0,7.441861"
     style="fill:none;stroke:#fa8f00;stroke-width:0.79374999;stroke-linecap:butt;stroke-linejoin:miter;stroke-miterlimit:4;stroke-dasharray:none;stroke-opacity:1" />
  <path
     id="path1433"
     d="m 12.725901,32.043325 c 4.464161,0 8.927884,0 24.937581,0.03846 16.009698,0.03846 43.57126,0.115398 71.129438,0.192325"
     style="fill:none;stroke:#fa8f00;stroke-width:0.79761118;stroke-linecap:butt;stroke-linejoin:miter;stroke-miterlimit:4;stroke-dasharray:none;stroke-opacity:1" />
  <path
     id="path1425-5"
     d="m 108.40228,25.692147 c 0,2.260062 0,4.520369 0,6.780915"
     style="fill:none;stroke:#fa8f00;stroke-width:0.79374999;stroke-linecap:butt;stroke-linejoin:miter;stroke-miterlimit:4;stroke-dasharray:none;stroke-opacity:1;marker-start:url(#marker1613)" />
  <path
     id="path1425-4"
     d="m 32.747617,23.970947 c 0,3.575197 0,7.150783 0,10.726745"
     style="fill:none;stroke:#fa8f00;stroke-width:0.80811268;stroke-linecap:butt;stroke-linejoin:miter;stroke-miterlimit:4;stroke-dasharray:none;stroke-opacity:1" />
  <path
     id="path1433-6"
     d="m 32.747131,34.319965 c 5.050472,0 10.100448,0 28.212842,0.03841 18.112394,0.03841 49.293777,0.11524 80.471357,0.192062"
     style="fill:none;stroke:#fa8f00;stroke-width:0.79527831;stroke-linecap:butt;stroke-linejoin:miter;stroke-miterlimit:4;stroke-dasharray:none;stroke-opacity:1" />
  <path
     id="path1425-4-3"
     d="m 141.03947,27.930975 c 0,2.309947 0,4.620143 0,6.930584"
     style="fill:none;stroke:#fa8f00;stroke-width:0.78411543;stroke-linecap:butt;stroke-linejoin:miter;stroke-miterlimit:4;stroke-dasharray:none;stroke-opacity:1;marker-start:url(#marker1629)" />
  <path
     id="path1425-4-4"
     d="m 60.827588,2.5680952 c 0,3.449242 0,6.898858 0,10.3488378"
     style="fill:none;stroke:#fa8f00;stroke-width:0.79374999;stroke-linecap:butt;stroke-linejoin:miter;stroke-miterlimit:4;stroke-dasharray:none;stroke-opacity:1" />
  <path
     id="path1433-6-7"
     d="m 60.442539,2.5684292 c 6.483658,0 12.966676,0 36.218915,0.038299 23.252236,0.038299 63.281926,0.1149117 103.306836,0.1915151"
     style="fill:none;stroke:#fa8f00;stroke-width:0.79404473;stroke-linecap:butt;stroke-linejoin:miter;stroke-miterlimit:4;stroke-dasharray:none;stroke-opacity:1" />
  <path
     id="path1425-4-3-4"
     d="m 199.54915,2.5634964 c 0,2.8184695 0,5.6372458 0,8.4563176"
     style="fill:none;stroke:#fa8f00;stroke-width:0.8461231;stroke-linecap:butt;stroke-linejoin:miter;stroke-miterlimit:4;stroke-dasharray:none;stroke-opacity:1;marker-end:url(#marker1639)" />
  <path
     id="path1425-4-4-7"
     d="m 32.981753,41.43938 c 0,3.449241 0,6.898858 0,10.348837"
     style="fill:none;stroke:#fa8f00;stroke-width:0.79374999;stroke-linecap:butt;stroke-linejoin:miter;stroke-miterlimit:4;stroke-dasharray:none;stroke-opacity:1" />
  <path
     id="path1433-6-7-8"
     d="m 32.585321,41.438871 c 3.88633,0 7.772276,0 21.709678,0.03847 13.937402,0.03847 37.93152,0.115418 61.922611,0.192359"
     style="fill:none;stroke:#fa8f00;stroke-width:0.80215013;stroke-linecap:butt;stroke-linejoin:miter;stroke-miterlimit:4;stroke-dasharray:none;stroke-opacity:1" />
  <path
     id="path1425-4-3-4-6"
     d="m 115.83787,41.62313 c 0,2.617911 0,5.236107 0,7.854577"
     style="fill:none;stroke:#fa8f00;stroke-width:0.79374999;stroke-linecap:butt;stroke-linejoin:miter;stroke-miterlimit:4;stroke-dasharray:none;stroke-opacity:1;marker-end:url(#Arrow1Send)" />
  <path
     id="path1425-4-4-3"
     d="m 52.303356,63.373388 c 0,3.139152 0,6.278642 0,9.418463"
     style="fill:none;stroke:#fa8f00;stroke-width:0.81049585;stroke-linecap:butt;stroke-linejoin:miter;stroke-miterlimit:4;stroke-dasharray:none;stroke-opacity:1" />
  <path
     id="path1433-6-7-1"
     d="m 52.303558,72.406602 c 6.062522,0 12.124448,0 33.866366,0.03832 21.741916,0.03832 59.171576,0.114984 96.596736,0.191636"
     style="fill:none;stroke:#fa8f00;stroke-width:0.79374999;stroke-linecap:butt;stroke-linejoin:miter;stroke-miterlimit:4;stroke-dasharray:none;stroke-opacity:1" />
  <path
     id="path1425-4-3-4-4"
     d="m 182.34285,64.984767 c 0,2.565943 0,5.132166 0,7.698659"
     style="fill:none;stroke:#fa8f00;stroke-width:0.79374999;stroke-linecap:butt;stroke-linejoin:miter;stroke-miterlimit:4;stroke-dasharray:none;stroke-opacity:1;marker-start:url(#marker1663)" />
</svg>
